<svg width="20" height="26" viewBox="0 0 20 26" fill="none" xmlns="http://www.w3.org/2000/svg">
<path d="M16.0755 16.1501C16.0755 16.1501 17.5121 12.3686 19 11.2529C19 11.2529 18.7522 8.64882 17.6982 8.40051C17.5021 8.64037 17.2543 8.8327 16.9732 8.96309C16.6922 9.09347 16.3853 9.15852 16.0755 9.15335V4.1703M16.0755 17.8196V21.452C16.0755 22.9172 13.7114 24.1504 10.5001 24.5137L10.4912 24.49C10.2796 23.9118 10.164 23.3028 10.1491 22.6872C10.1296 22.3082 10.18 21.9288 10.2977 21.568C10.4043 21.2699 10.5771 20.9978 10.6798 20.6982C10.7993 20.272 10.8473 19.8289 10.822 19.387L10.8116 14.4143M1 4.1703V21.452C1 22.1333 1.51045 22.7642 2.38029 23.281C2.22416 22.4227 2.27545 21.5396 2.52987 20.7051C2.52987 20.7051 2.88284 19.5326 3.30344 21.4792C3.7483 22.1422 3.93691 22.9444 3.83413 23.7362V23.9292C5.35552 24.4074 6.94311 24.6413 8.53777 24.6223C8.61445 24.6223 8.6908 24.6218 8.76683 24.6208M9.72404 4.81947C13.2375 3.6169 4.83972 2.83543 5.42373 4.94091C6.59816 6.28071 12.9338 6.20272 13.5267 4.22904C14.0984 1.55091 2.56541 1.88216 3.69195 4.67828" fill="white"/>
<path d="M16.0755 16.1501C16.0755 16.1501 17.5121 12.3686 19 11.2529C19 11.2529 18.7522 8.64882 17.6982 8.40051C17.5021 8.64037 17.2543 8.8327 16.9732 8.96309C16.6922 9.09347 16.3853 9.15852 16.0755 9.15335V4.1703M16.0755 17.8196V21.452C16.0755 22.9172 13.7114 24.1504 10.5001 24.5137L10.4912 24.49C10.2796 23.9118 10.164 23.3028 10.1491 22.6872C10.1296 22.3082 10.18 21.9288 10.2977 21.568C10.4043 21.2699 10.5771 20.9978 10.6798 20.6982C10.7993 20.272 10.8473 19.8289 10.822 19.387L10.8116 14.4143M1 4.1703V21.452C1 22.1333 1.51045 22.7642 2.38029 23.281C2.22416 22.4227 2.27545 21.5396 2.52987 20.7051C2.52987 20.7051 2.88284 19.5326 3.30344 21.4792C3.7483 22.1422 3.93691 22.9444 3.83413 23.7362V23.9292C5.35552 24.4074 6.94311 24.6413 8.53777 24.6223C8.61445 24.6223 8.6908 24.6218 8.76683 24.6208M9.72404 4.81947C13.2375 3.6169 4.83972 2.83543 5.42373 4.94091C6.59816 6.28071 12.9338 6.20272 13.5267 4.22904C14.0984 1.55091 2.56541 1.88216 3.69195 4.67828" stroke="#133D0C" stroke-width="0.987329" stroke-linecap="round" stroke-linejoin="round"/>
<path d="M6.4076 18.9699C6.22429 17.403 6.14119 15.826 6.1588 14.2485C6.18922 13.9076 6.14335 13.5643 6.02452 13.2434C5.88473 13.0028 5.72045 12.7773 5.53431 12.5705C5.01401 11.7504 4.80977 10.769 4.95968 9.80945C5.09426 8.91937 5.18356 8.02304 5.22725 7.12391L5.22429 7.01876C6.31515 7.23715 7.42526 7.34498 8.53777 7.34063C12.7008 7.34063 16.0755 5.92134 16.0755 4.17031C16.0755 2.41929 12.7008 1 8.53727 1C4.3737 1 1 2.41929 1 4.17031C1 5.13 2.013 5.98996 3.61445 6.571" fill="white"/>
<path d="M6.4076 18.9699C6.22429 17.403 6.14119 15.826 6.1588 14.2485C6.18922 13.9076 6.14335 13.5643 6.02452 13.2434C5.88473 13.0028 5.72045 12.7773 5.53431 12.5705C5.01401 11.7504 4.80977 10.769 4.95968 9.80945C5.09426 8.91937 5.18356 8.02304 5.22725 7.12391L5.22429 7.01876C6.31515 7.23715 7.42526 7.34498 8.53777 7.34063C12.7008 7.34063 16.0755 5.92134 16.0755 4.17031C16.0755 2.41929 12.7008 1 8.53727 1C4.3737 1 1 2.41929 1 4.17031C1 5.13 2.013 5.98996 3.61445 6.571" stroke="#133D0C" stroke-width="0.987329" stroke-linecap="round" stroke-linejoin="round"/>
</svg>
