<svg width="31" height="31" viewBox="0 0 31 31" fill="none" xmlns="http://www.w3.org/2000/svg">
<path d="M23.25 2.58331H16.7917C16.7917 3.29373 16.2104 3.87498 15.5 3.87498C14.7896 3.87498 14.2083 3.29373 14.2083 2.58331H7.75001C6.32917 2.58331 5.16667 3.74581 5.16667 5.16665V25.8333C5.16667 27.2541 6.32917 28.4166 7.75001 28.4166H23.25C24.6708 28.4166 25.8333 27.2541 25.8333 25.8333V5.16665C25.8333 3.74581 24.6708 2.58331 23.25 2.58331Z" fill="#455A64"/>
<path d="M23.25 26.4792H7.75001C7.36251 26.4792 7.10417 26.2208 7.10417 25.8333V5.16668C7.10417 4.77918 7.36251 4.52084 7.75001 4.52084H23.25C23.6375 4.52084 23.8958 4.77918 23.8958 5.16668V25.8333C23.8958 26.2208 23.6375 26.4792 23.25 26.4792Z" fill="white"/>
<path d="M16.7917 2.58331C16.7917 3.29373 16.2104 3.87498 15.5 3.87498C14.7896 3.87498 14.2083 3.29373 14.2083 2.58331H9.6875V5.16665C9.6875 5.87706 10.2687 6.45831 10.9792 6.45831H20.0208C20.7312 6.45831 21.3125 5.87706 21.3125 5.16665V2.58331H16.7917Z" fill="#90A4AE"/>
<path d="M15.5 0C14.0792 0 12.9167 1.1625 12.9167 2.58333C12.9167 4.00417 14.0792 5.16667 15.5 5.16667C16.9208 5.16667 18.0833 4.00417 18.0833 2.58333C18.0833 1.1625 16.9208 0 15.5 0ZM15.5 3.875C14.7896 3.875 14.2083 3.29375 14.2083 2.58333C14.2083 1.87292 14.7896 1.29167 15.5 1.29167C16.2104 1.29167 16.7917 1.87292 16.7917 2.58333C16.7917 3.29375 16.2104 3.875 15.5 3.875Z" fill="#90A4AE"/>
<path d="M19.7625 12.0125L13.95 17.825L11.2375 15.0479L9.62291 16.6625L14.0146 20.9896L21.3771 13.6271L19.7625 12.0125Z" fill="#1F5C15"/>
</svg>
